<?xml version="1.0" encoding="utf-8"?>
<!-- Generator: Adobe Illustrator 18.1.1, SVG Export Plug-In . SVG Version: 6.00 Build 0)  -->
<svg version="1.1" id="Layer_1" xmlns="http://www.w3.org/2000/svg" xmlns:xlink="http://www.w3.org/1999/xlink" x="0px" y="0px"
	 viewBox="0 0 128 128" enable-background="new 0 0 128 128" xml:space="preserve">
<g>
	<path fill="#999999" d="M261.8-54.9c-3.2-1.4-5.1-2.8-7-3.8c-3.5-2-5-2.9-5-8.8c0-7.6,6.3-12,6.7-12.9c2-4.2,1-7.7,0.4-9.3
		c4.5-9.9-0.9-18-2-19.6c-2.9-8.3-9.1-10.1-13.8-10.1c-5.5,0-10.5,2.4-10.6,2.4c-5.1,2-8.6,5.4-10.4,9.9c-2.9,7.2-0.3,15,0.6,17.4
		c-2.3,5.6,0.4,9.5,0.5,9.6c0.5,0.5,6.5,5.1,6.5,12.7c0,7.3-4,8.8-9.7,10.5c-5.8,1.9-17.5,5.8-17.5,18.4v1.7h75.1v-1.8
		C275.2-48.9,267.4-52.4,261.8-54.9z M203.8-40.3c1-8.8,10.1-11.9,15.1-13.4c5.8-1.9,12-4,12-13.8c0-8.3-5.9-13.7-7.3-14.8
		c-0.4-0.6-1.4-3.1,0.3-6.7l0.4-0.8l-0.4-0.6c0-0.1-3.7-8.4-0.9-15.5c1.4-3.6,4.2-6.1,8.6-7.9c0,0,4.5-2.2,9.2-2.2
		c5.4,0,8.8,2.6,10.8,8.3c0.3,0.4,6.3,8.1,1.7,17.3l-0.4,0.9l0.5,0.8c0,0,1.7,2.8,0,6.5c-1.5,1.3-7.2,6.5-7.2,14.7
		c0,7.6,2.6,9.3,6.8,11.8c1.9,1.2,4.4,2.6,7.3,4c5,2.3,10.6,4.9,11.5,11.5C271.7-40.3,203.8-40.3,203.8-40.3z"/>
	<path fill="#999999" d="M295.9-43.6h-17.8c-0.4-1.3-0.8-2.4-1.4-3.5h15.5c-0.9-5.5-5.5-7.6-9.7-9.5c-2.6-1.2-4.6-2.4-6.3-3.5
		c-3.1-1.8-5.9-3.5-5.9-10.4c0-7,4.9-11.8,6.1-12.9c1.3-2.9,0-5.2-0.1-5.4l-0.5-0.8l0.4-0.9c3.8-7.7-1-14.1-1.4-14.6
		c-1.5-4.9-4.5-7-9-7c-4,0-7.7,1.9-7.8,1.9l0,0c-0.1-0.4-0.4-0.6-0.5-0.9c-0.3-0.8-0.6-1.5-1-2.2l0.1-0.1c0,0,4.4-2.2,9.2-2.2
		c4.1,0,9.5,1.5,12,8.8c1,1.4,5.6,8.4,1.9,17c0.5,1.4,1.4,4.5-0.4,8.1c-0.4,0.8-5.8,4.5-5.8,11c0,5,1.2,5.6,4.1,7.4
		c1.5,0.9,3.2,2,6,3.3c4.9,2.3,11.6,5.4,11.8,14.3L295.9-43.6z"/>
	<path fill="#999999" d="M180.7-45.4c0.1-9,6.9-12,11.8-14.3c2.8-1.2,4.5-2.4,6-3.3c2.9-1.7,4.1-2.4,4.1-7.4c0-6.5-5.4-10.2-5.8-11
		c-1.7-3.6-0.9-6.7-0.4-8.1c-3.7-8.6,0.8-15.5,1.9-17c2.6-7.3,7.9-8.8,12-8.8c4.9,0,9.1,2.2,9.2,2.2c0.1,0,0.1,0,0.1,0.1
		c-0.4,0.6-0.6,1.4-1,2.2c-0.1,0.3-0.4,0.5-0.5,0.9l0,0c0,0-3.7-1.9-7.8-1.9c-4.5,0-7.4,2.3-9,7c-0.4,0.5-5.2,6.9-1.4,14.6l0.4,0.9
		l-0.5,0.8c-0.1,0.1-1.4,2.4-0.1,5.4c1.4,1.2,6.1,5.9,6.1,12.9c0,6.9-2.7,8.6-5.9,10.4c-1.7,1-3.7,2.3-6.3,3.5
		c-4.1,1.9-8.8,4-9.7,9.5h15.5c-0.5,1-1,2.3-1.4,3.5h-17.8L180.7-45.4z"/>
</g>
<g>
	<path fill="#999999" d="M-481.4-396.9c0,31.9-25.7,57.6-57.6,57.6s-57.6-25.7-57.6-57.6s25.7-57.6,57.6-57.6
		S-481.4-428.7-481.4-396.9z M-485.5-396.9c0-29.6-23.9-53.5-53.5-53.5c-29.6,0-53.5,23.9-53.5,53.5s23.9,53.5,53.5,53.5
		C-509.4-343.4-485.5-367.3-485.5-396.9z M-506.1-396.9c0,18.2-14.7,32.9-32.9,32.9c-18.2,0-32.9-14.7-32.9-32.9
		s14.7-32.9,32.9-32.9C-520.8-429.8-506.1-415-506.1-396.9z M-510.2-396.9c0-15.9-12.9-28.8-28.8-28.8s-28.8,12.9-28.8,28.8
		s12.9,28.8,28.8,28.8S-510.2-381-510.2-396.9z M-530.8-396.9c0,4.6-3.7,8.2-8.2,8.2c-4.5,0-8.2-3.7-8.2-8.2c0-4.6,3.7-8.2,8.2-8.2
		C-534.5-405-530.8-401.5-530.8-396.9z"/>
</g>
<g>
	<path fill="#999999" d="M317.8,183.2V249c0,2.3-1.9,4.1-4.1,4.1h-107c-2.3,0-4.1-1.8-4.1-4.1v-65.8c0-2.3,1.9-4.1,4.1-4.1h107
		C315.9,179.1,317.8,180.9,317.8,183.2z M206.7,247.8l31.6-31.6l-31.6-31.6V247.8z M211.2,183.2l46.1,46.1c0.9,0.8,1.9,1.3,2.9,1.3
		s2.2-0.5,2.9-1.3l46.1-46.1H211.2z M309.2,249.1L279.2,219l-13.3,13.3c-1.5,1.5-3.7,2.3-5.8,2.3s-4.1-0.8-5.8-2.3L241.2,219
		l-30,30.1H309.2z M313.7,184.4l-31.6,31.6l31.6,31.6V184.4z"/>
</g>
<g>
	<path fill="#999999" d="M-171.1-100c15.9-19.5,50.2-21.1,71.6-7.8c1.8-1.3,3.7-2.4,5.4-3.3c1.9-1.2,4,0.1,4.1,2l0.3,9.1
		c7.4,7.2,10.6,12.2,21.4,15.5c1.7-2.7,5.5-0.8,4.9,2l-3.8,18.9c-0.1,0.6-0.4,1.2-1,1.7C-80-52.6-87.4-49-102.9-46.3l-3.6,12.7l0,0
		c-1,3.8-11.6,2.8-15.2,1.8l0,0c-0.9-0.3-1.7-1-1.9-2l-2.3-11.4c-7.3,1-12.3,0.3-19.1-2.2l-2.7,13.4c-0.1,1-0.9,1.9-1.9,2.2
		c-3.6,1-14.3,1.9-15.4-1.9c-2.9-12.3-13.2-36.1-13.2-46.7c0-5.9,1.8-11.4,5-16.4c-7.8-6.9-7.2-18.8,1.9-19.2
		c8.7-0.4,8.6,10.1,4.5,9c-2.9-0.9,0.6-3.8-2.7-5C-175.5-114.2-177.4-105.9-171.1-100L-171.1-100z M-97.3-85.8
		c7.4,0,7.4,11.3,0,11.3S-104.7-85.8-97.3-85.8L-97.3-85.8z M-90.9-93.4c-0.4,1.7-1.3,3.5-3.5,2.9c-4-1-0.5-5-0.8-13.8
		c-7.6,5-7.6,9.7-10.9,7.7c-3.2-1.9,0.4-5.8,2-7.4c-9.2-5.2-19.2-6.8-29.2-6.8c-19.3,0-39.7,11.8-39.7,30.3
		c0,8.8,9.6,32.4,12.7,43.9h7.6c1-5,2-10,3.1-15c1-4.9,6.9,0.3,14.3,1.3c8.1,1,13.4-2.7,14.1,1.7l2.4,12.2h7.6l6-21.2
		c0.4-1.4,1.9-2.3,3.3-1.8c3.3,0.9,1.4,4.7,0.6,7.6c6.4-1.3,11.1-2.7,15.2-4.6c4.7-2.2,8.7-5,13.4-8.7l2.8-13.7
		C-80.6-82.4-84.2-86.7-90.9-93.4L-90.9-93.4z M-161.9-31.9c-0.4,0.1-0.8,0.1-1.2,0H-161.9L-161.9-31.9z"/>
	<path fill="#999999" d="M-124-99.7c-5.8-1.4-12-1.4-17.9,0.1c-3.5,0.9-4.7-4.4-1.4-5.2c6.7-1.8,13.8-1.8,20.5-0.1
		C-119.3-104.1-120.6-98.9-124-99.7L-124-99.7z"/>
</g>
<text transform="matrix(1 0 0 1 -1088.8767 30.795)" fill="#FFFFFF" font-family="'SSSymboliconsBlock'" font-size="113">music</text>
<text transform="matrix(1 0 0 1 -866.8767 30.795)" fill="#FFFFFF" font-family="'SSSymboliconsBlock'" font-size="113">smile</text>
<text transform="matrix(1 0 0 1 -650.8767 30.795)" fill="#FFFFFF" font-family="'SSSymboliconsBlock'" font-size="113">megaphone</text>
<text transform="matrix(1 0 0 1 -1088.8767 278.795)" fill="#FFFFFF" font-family="'SSSymboliconsBlock'" font-size="113">gift</text>
<text transform="matrix(1 0 0 1 -866.8767 278.795)" fill="#FFFFFF" font-family="'SSSymboliconsBlock'" font-size="113">run</text>
<text transform="matrix(1 0 0 1 -650.8767 278.795)" fill="#FFFFFF" font-family="'SSSymboliconsBlock'" font-size="113">barchart</text>
<g>
	<path fill="#FFFFFF" d="M-365.3,322.9l80.7-9.1v85.8c0,5.2-2.2,9.7-6.6,13.5c-4.4,3.8-9.7,5.7-15.8,5.7c-6.2,0-11.6-1.9-16.1-5.7
		c-4.5-3.8-6.8-8.3-6.8-13.5c0-5.2,2.3-9.7,6.9-13.5c4.6-3.8,10-5.7,16.2-5.7c3.4,0,6.8,0.8,10.2,2.4V336l-56.5,6.1v65.6
		c0,5.3-2.1,9.8-6.4,13.6c-4.3,3.7-9.5,5.6-15.8,5.6c-6.3,0-11.6-1.7-15.8-5.2c-4.2-3.4-6.4-7.8-6.4-13c0-5.2,2.2-9.7,6.6-13.5
		s9.7-5.7,15.8-5.7c3,0,6.3,0.5,9.8,1.6V322.9z"/>
</g>
<g>
	<path fill="#FFFFFF" d="M64.1,7.5C79.7,7.5,93,13,104,24.1c11,11.1,16.5,24.4,16.5,39.9c0,15.6-5.5,28.9-16.5,39.9
		c-11,11.1-24.3,16.6-39.9,16.6c-15.6,0-29-5.5-40-16.6C13,92.9,7.5,79.6,7.5,64c0-15.6,5.5-28.9,16.6-39.9
		C35.1,13,48.5,7.5,64.1,7.5z M64,100.3c7.8,0,15.1-2.4,21.8-7.2s11.5-10.5,14.6-17H27.7c3.1,6.6,8,12.2,14.7,17
		S56.3,100.3,64,100.3z M55.6,40.2c-1.6-1.6-3.5-2.4-5.7-2.4c-2.2,0-4.1,0.8-5.7,2.4c-1.6,1.6-2.4,3.5-2.4,5.7
		c0,2.2,0.8,4.1,2.4,5.7c1.6,1.6,3.5,2.4,5.7,2.4c2.2,0,4.1-0.8,5.7-2.4c1.6-1.6,2.4-3.5,2.4-5.7C57.9,43.7,57.1,41.8,55.6,40.2z
		 M83.8,40.2c-1.6-1.6-3.5-2.4-5.7-2.4c-2.2,0-4.1,0.8-5.7,2.4c-1.6,1.6-2.4,3.5-2.4,5.7c0,2.2,0.8,4.1,2.4,5.7
		c1.6,1.6,3.5,2.4,5.7,2.4c2.2,0,4.1-0.8,5.7-2.4c1.6-1.6,2.4-3.5,2.4-5.7C86.2,43.7,85.4,41.8,83.8,40.2z"/>
</g>
<g>
	<path fill="#FFFFFF" d="M40.4,382.4V342h52.5v40.4H40.4z M56.5,386.4h20.2l12.1,40.4H68.7L56.5,386.4z M96.9,382.4V342l44.4-28.2
		v96.9L96.9,382.4z M145.3,346.1h8.1v32.3h-8.1V346.1z"/>
</g>
<g>
	<path fill="#FFFFFF" d="M-306.8,586h22.2v20.2h-113V586h22.2c-0.7,0-1.2-0.8-1.7-2.5c-0.5-1.7-0.7-3.4-0.7-5.3
		c0.2-3,0.9-5.7,2.3-7.9c1.3-2.3,2.9-3.9,4.6-4.9c1.7-1,3.4-1.8,5.2-2.4c1.7-0.6,3.2-0.9,4.4-1l1.8-0.1c7.2,0,13.4,4.8,18.5,14.3
		c5.1-9.5,11.3-14.3,18.4-14.3c0.5,0,1.1,0,1.9,0.1c0.8,0.1,2.1,0.4,4.2,1c2,0.6,3.8,1.4,5.4,2.4c1.6,1,3.1,2.6,4.5,4.9
		c1.4,2.3,2.2,4.9,2.3,7.9c0,1.8-0.2,3.6-0.7,5.3C-305.6,585.2-306.1,586-306.8,586z M-305.8,634.7l-13.9-24.5h27v64.6h-96.9v-64.6
		h27l-13.9,24.6l10.6-1.9l4.9,8.1l17.4-30.8h4.8l17.4,30.9l4.9-8.2L-305.8,634.7z M-353.6,586h8.1c-4-10.7-8.7-16-14-16
		c-1.3,0-2.5,0.2-3.8,0.6c-1.3,0.4-2.6,1.2-3.9,2.6c-1.3,1.3-2.1,3.1-2.3,5.3c0.2,2.4,1.5,4.2,4,5.4
		C-362.4,585.3-358.5,586-353.6,586z M-316.8,583.7c2.5-1.3,3.9-3,4-5.3c-0.3-2.4-1.1-4.2-2.6-5.6c-1.5-1.4-2.9-2.2-4-2.5
		c-1.2-0.3-2.3-0.4-3.3-0.4c-5.3,0-10,5.3-14,16h8.1C-323.9,586-320,585.3-316.8,583.7z"/>
</g>
<g>
	<path fill="#FFFFFF" d="M-86.8,630.4l-12.1-20.2l-12.1,14.1l16.1,22.2l-4,28.2h-16.1l4-24.2l-14.1-16.1l-10.1,12.1l-32.3,12.1
		l-8.1-12.1l28.2-12.1l24-40.1c-3.6-1.8-7-2.6-10.1-2.6c-2.3,0-4.2,0.3-5.7,0.9l-15.9,5.2l-3.9-10.5l18.5-5.9
		c3.3-0.9,7.2-1.4,11.9-1.4c22.5,0,37.7,12,45.5,36.1l16.4-5.8l4,12.1L-86.8,630.4z M-99.4,582.5c-2.4-2.4-3.5-5.2-3.5-8.6
		c0-3.4,1.2-6.2,3.5-8.6c2.4-2.4,5.2-3.5,8.6-3.5c3.4,0,6.2,1.2,8.6,3.5c2.4,2.4,3.5,5.2,3.5,8.6c0,3.4-1.2,6.2-3.5,8.6
		c-2.4,2.4-5.2,3.5-8.6,3.5C-94.2,586-97.1,584.8-99.4,582.5z"/>
</g>
<g>
	<path fill="#FFFFFF" d="M40.4,674.8v-60.5h32.3v60.5H40.4z M80.8,674.8V586H113v88.8H80.8z M121.1,561.8h32.3v113h-32.3V561.8z"/>
</g>
</svg>
