<?xml version="1.0" encoding="utf-8"?>
<!-- Generator: Adobe Illustrator 18.0.0, SVG Export Plug-In . SVG Version: 6.00 Build 0)  -->
<!DOCTYPE svg PUBLIC "-//W3C//DTD SVG 1.1//EN" "http://www.w3.org/Graphics/SVG/1.1/DTD/svg11.dtd">
<svg version="1.1" id="Layer_1" xmlns="http://www.w3.org/2000/svg" xmlns:xlink="http://www.w3.org/1999/xlink" x="0px" y="0px"
	 viewBox="0 0 287.1 65.1" enable-background="new 0 0 287.1 65.1" xml:space="preserve">
<g>
	<path fill="#989898" d="M-782.6,223.1c0-0.6,0.5-1,1-1h1.3c0.6,0,1,0.5,1,1v25.1c0,0,3.8-3.2,9.8-3.2c9,0,15.5,7.2,15.5,16.6
		c0,9.3-6.4,16.7-14.6,16.7c-6.1,0-10.1-3.6-11-4.7l-0.2,2.9c-0.1,0.7-0.5,1-1.1,1h-0.8c-0.6,0-1-0.5-1-1V223.1z M-768.7,275.2
		c6.7,0,11.5-6.1,11.5-13.5c0-7.5-5.2-13.2-12.5-13.2c-5.7,0-9.4,3.3-9.4,3.3v17.8C-779,269.9-775.6,275.2-768.7,275.2"/>
	<path fill="#989898" d="M-733.3,257.1c3.6,0,7.1,1.1,8,1.4c0-7-0.7-10.5-7-10.5c-5.2,0-8.8,1.9-9.5,2.1c-0.6,0.2-1-0.1-1.2-0.6
		l-0.4-1c-0.2-0.7,0.1-1,0.5-1.2c0.2-0.2,4.3-2.4,10.9-2.4c9.7,0,10.1,5.8,10.1,13.9v17.6c0,0.6-0.5,1-1,1h-1c-0.6,0-0.8-0.3-1-0.9
		l-0.3-2.9c-2.1,1.9-5.9,4.5-11,4.5c-5.9,0-10.4-4-10.4-10.5C-746.6,261.7-741.6,257.1-733.3,257.1 M-735.8,275.3
		c4.8,0,9-2.9,10.5-4.9v-8.7c-1-0.5-4.2-1.7-8-1.7c-6,0-10.1,3.1-10.1,7.8C-743.4,272.3-740.2,275.3-735.8,275.3"/>
	<path fill="#989898" d="M-710.2,246.9c0-0.6,0.5-1,1.1-1h0.8c0.6,0,0.9,0.3,1,0.8l0.3,3.4c1-1.1,5.4-5,11.7-5
		c8.9,0,12.8,5.6,12.8,14.5v17c0,0.6-0.5,1-1,1h-1.4c-0.6,0-1-0.5-1-1v-17c0-7.3-3.4-11.1-9.4-11.1c-6.5,0-11,5.1-11.3,5.5v22.6
		c0,0.6-0.3,1-1,1h-1.5c-0.6,0-0.9-0.5-0.9-1V246.9z"/>
	<path fill="#989898" d="M-657.7,245.1c6,0,9.8,3.2,9.8,3.2v-25.1c0-0.6,0.4-1,1-1h1.4c0.5,0,1,0.5,1,1v53.4c0,0.6-0.5,1-1,1h-0.8
		c-0.6,0-1-0.3-1.1-1l-0.2-2.8c-1,1-4.8,4.6-10.9,4.6c-8.2,0-14.7-7.4-14.7-16.6C-673.3,252.4-666.7,245.1-657.7,245.1
		 M-658.4,275.2c6.9,0,10.3-5.3,10.5-5.6v-17.8c0,0-3.6-3.3-9.4-3.3c-7.3,0-12.4,5.7-12.4,13.2C-669.8,269.1-665,275.2-658.4,275.2"
		/>
	<path fill="#42AA7D" d="M-631.8,254.2h-2.7c-0.9,0-1.5-0.7-1.5-1.5v-5.3c0-0.9,0.6-1.5,1.5-1.5h2.7v-8.6c0-10.5,6.4-16,14.8-16
		c4.2,0,7.9,1.8,9.4,3.1c0.5,0.4,0.6,1.3,0.3,1.8l-2.7,5.1c-0.3,0.6-1.2,0.8-1.9,0.4c-1-0.6-2.9-1.6-4.7-1.6c-3.4,0-5.3,2.6-5.3,7.2
		v8.6h7.9c0.9,0,1.5,0.6,1.5,1.5v5.3c0,0.8-0.6,1.5-1.5,1.5h-7.9v21.9c0,0.8-0.7,1.5-1.5,1.5h-6.9c-0.8,0-1.5-0.7-1.5-1.5V254.2z"/>
	<path fill="#42AA7D" d="M-607,247.4c0-0.9,0.7-1.5,1.5-1.5h6.5c0.8,0,1.5,0.6,1.5,1.5V263c0,4.2,2.1,6.8,5.8,6.8
		c3.3,0,5.9-3.1,6.3-5.9v-16.5c0-1.2,0.5-1.5,1.7-1.5h6c0.8,0,1.5,0.6,1.5,1.5v28.7c0,0.8-0.7,1.5-1.5,1.5h-2.9
		c-0.8,0-1.3-0.6-1.5-1.2l-1-2.6c-1.4,1.3-4.4,4.6-10.6,4.6c-9.8,0-13.4-7.5-13.4-15.6V247.4z"/>
	<path fill="#42AA7D" d="M-566.6,247.4c0-0.9,0.7-1.5,1.5-1.5h3c0.7,0,1.1,0.4,1.3,1l1.1,2.9c1.2-1.3,5.1-4.7,11.2-4.7
		c10.1,0,14.1,7.5,14.1,15.8v15.2c0,0.8-0.7,1.5-1.5,1.5h-6.5c-0.9,0-1.5-0.7-1.5-1.5v-15.7c0-4.1-2.1-6.7-5.9-6.7
		c-4.1,0-6.7,2.9-7.5,5v17.4c0,1.1-0.5,1.5-2,1.5h-5.9c-0.8,0-1.5-0.7-1.5-1.5V247.4z"/>
	<path fill="#42AA7D" d="M-512.1,245.1c3.2,0,5.6,0.9,7.1,1.4v-22.9c0-0.8,0.7-1.5,1.5-1.5h6.7c0.8,0,1.5,0.7,1.5,1.5v52.5
		c0,0.8-0.7,1.5-1.5,1.5h-3.1c-0.7,0-1.3-0.6-1.5-1.5l-0.8-2.5c0,0-3.7,4.8-10.4,4.8c-8.6,0-15.2-7.5-15.2-16.6
		C-527.8,252.5-521.6,245.1-512.1,245.1 M-511.4,269.8c4.2,0,6.1-3.2,6.7-5.2v-9.2c0,0-2.2-1.8-6.2-1.8c-4.4,0-7.7,3.6-7.7,8.1
		C-518.6,266.2-515.6,269.8-511.4,269.8"/>
</g>
<g>
	<path fill-rule="evenodd" clip-rule="evenodd" fill="#40A87D" d="M-915.9,221c17.7-21.7,55.9-23.5,79.6-8.7c2-1.4,4.1-2.7,6-3.7
		c2.2-1.3,4.5,0.2,4.6,2.3l0.2,10.1c8.2,8,11.9,13.6,23.8,17.3c1.9-3,6.1-0.8,5.5,2.2l-4.3,21.1c-0.1,0.7-0.5,1.4-1.1,1.8
		c-12.8,10.3-21.1,14.3-38.4,17.2l-4.1,14.2l0,0c-1.2,4.2-13,3.2-17,2.1l0,0c-1-0.3-1.9-1.2-2.1-2.3l-2.6-12.6
		c-8.2,1.1-13.6,0.3-21.3-2.5l-3,15c-0.2,1.1-1,2.1-2.2,2.4c-4,1.1-16,2.2-17.1-2.2c-3.3-13.7-14.7-40.3-14.7-52.1
		c0-6.6,2-12.7,5.5-18.2c-8.7-7.7-7.9-21,2.1-21.4c9.8-0.5,9.5,11.3,5,10c-3.3-1,0.7-4.3-3-5.5C-920.7,205.2-922.8,214.5-915.9,221
		L-915.9,221z M-833.6,236.8c8.3,0,8.3,12.6,0,12.6C-841.9,249.4-841.9,236.8-833.6,236.8L-833.6,236.8z M-826.5,228.2
		c-0.4,1.9-1.4,3.8-3.9,3.2c-4.4-1.1-0.6-5.6-0.9-15.3c-8.4,5.5-8.4,10.8-12.1,8.5c-3.6-2.2,0.5-6.4,2.3-8.3
		c-10.3-5.9-21.4-7.6-32.5-7.6c-21.5,0-44.2,13.1-44.2,33.8c0,9.8,10.7,36.1,14.1,48.9l8.3,0c1.1-5.6,2.2-11.1,3.4-16.7
		c1.1-5.4,7.7,0.3,16,1.4c9,1.2,14.9-3,15.7,1.8l2.7,13.5l8.4,0l6.8-23.6c0.5-1.6,2.1-2.5,3.7-2.1c3.7,1,1.6,5.3,0.7,8.4
		c7.1-1.4,12.4-3,17-5.1c5.3-2.4,9.7-5.6,14.9-9.7l3.1-15.3C-815,240.4-819,235.8-826.5,228.2L-826.5,228.2z M-905.5,296.8
		c-0.4,0.1-0.9,0.1-1.3,0L-905.5,296.8L-905.5,296.8z"/>
	<path fill-rule="evenodd" clip-rule="evenodd" fill="#40A87D" d="M-863.4,221.2c-6.5-1.6-13.5-1.6-19.9,0.1c-3.8,1-5.3-4.8-1.5-5.8
		c7.5-2,15.4-2,22.8-0.2C-858.1,216.4-859.5,222.2-863.4,221.2L-863.4,221.2z"/>
</g>
<g>
	<path fill="#989898" d="M96.3,14.4c0-0.4,0.3-0.7,0.7-0.7h0.9c0.4,0,0.7,0.3,0.7,0.7v16.5c0,0,2.5-2.1,6.5-2.1
		c5.9,0,10.2,4.7,10.2,10.9c0,6.1-4.2,11-9.6,11c-4,0-6.6-2.3-7.2-3.1l-0.2,1.9c-0.1,0.5-0.3,0.7-0.7,0.7H97c-0.4,0-0.7-0.3-0.7-0.7
		V14.4z M105.4,48.6c4.4,0,7.5-4,7.5-8.8c0-4.9-3.4-8.7-8.2-8.7c-3.7,0-6.1,2.2-6.1,2.2v11.7C98.7,45.1,101,48.6,105.4,48.6"/>
	<path fill="#989898" d="M128.7,36.8c2.4,0,4.7,0.7,5.3,0.9c0-4.6-0.5-6.9-4.6-6.9c-3.4,0-5.8,1.2-6.2,1.4c-0.4,0.2-0.7-0.1-0.8-0.4
		l-0.3-0.6c-0.2-0.5,0.1-0.7,0.3-0.8c0.2-0.1,2.8-1.6,7.1-1.6c6.3,0,6.6,3.8,6.6,9.1v11.6c0,0.4-0.3,0.7-0.7,0.7h-0.6
		c-0.4,0-0.5-0.2-0.6-0.6l-0.2-1.9c-1.4,1.2-3.9,3-7.2,3c-3.9,0-6.8-2.7-6.8-6.9C120,39.8,123.2,36.8,128.7,36.8 M127,48.7
		c3.2,0,5.9-1.9,6.9-3.2v-5.7c-0.7-0.3-2.8-1.1-5.3-1.1c-4,0-6.6,2-6.6,5.1C122.1,46.7,124.2,48.7,127,48.7"/>
	<path fill="#989898" d="M143.9,30c0-0.4,0.3-0.7,0.7-0.7h0.5c0.4,0,0.6,0.2,0.6,0.5l0.2,2.2c0.7-0.7,3.5-3.3,7.7-3.3
		c5.8,0,8.4,3.7,8.4,9.5v11.1c0,0.4-0.3,0.7-0.7,0.7h-0.9c-0.4,0-0.7-0.3-0.7-0.7V38.4c0-4.8-2.2-7.3-6.2-7.3
		c-4.3,0-7.2,3.3-7.4,3.6v14.8c0,0.4-0.2,0.7-0.7,0.7h-1c-0.4,0-0.6-0.3-0.6-0.7V30z"/>
	<path fill="#989898" d="M178.4,28.8c4,0,6.4,2.1,6.4,2.1V14.4c0-0.4,0.3-0.7,0.7-0.7h0.9c0.3,0,0.6,0.3,0.6,0.7v35.1
		c0,0.4-0.3,0.7-0.7,0.7h-0.5c-0.4,0-0.7-0.2-0.7-0.7l-0.2-1.8c-0.6,0.7-3.2,3-7.2,3c-5.4,0-9.6-4.8-9.6-10.9
		C168.1,33.6,172.4,28.8,178.4,28.8 M177.9,48.6c4.5,0,6.8-3.5,6.9-3.7V33.3c0,0-2.4-2.2-6.2-2.2c-4.8,0-8.2,3.7-8.2,8.7
		C170.4,44.6,173.5,48.6,177.9,48.6"/>
	<path fill="#42AA7D" d="M195.3,34.8h-1.8c-0.6,0-1-0.5-1-1v-3.5c0-0.6,0.4-1,1-1h1.8v-5.6c0-6.9,4.2-10.5,9.7-10.5
		c2.8,0,5.2,1.2,6.1,2c0.3,0.3,0.4,0.8,0.2,1.2l-1.8,3.3c-0.2,0.4-0.8,0.5-1.2,0.3c-0.7-0.4-1.9-1-3.1-1c-2.2,0-3.5,1.7-3.5,4.7v5.6
		h5.2c0.6,0,1,0.4,1,1v3.5c0,0.5-0.4,1-1,1h-5.2v14.4c0,0.5-0.5,1-1,1h-4.5c-0.5,0-1-0.5-1-1V34.8z"/>
	<path fill="#42AA7D" d="M211.6,30.4c0-0.6,0.5-1,1-1h4.3c0.5,0,1,0.4,1,1v10.3c0,2.8,1.4,4.5,3.8,4.5c2.2,0,3.9-2,4.2-3.9V30.4
		c0-0.8,0.3-1,1.1-1h4c0.5,0,1,0.4,1,1v18.8c0,0.5-0.5,1-1,1H229c-0.5,0-0.8-0.4-1-0.8l-0.6-1.7c-0.9,0.8-2.9,3-7,3
		c-6.5,0-8.8-4.9-8.8-10.3V30.4z"/>
	<path fill="#42AA7D" d="M238.2,30.4c0-0.6,0.5-1,1-1h2c0.5,0,0.7,0.3,0.9,0.6l0.7,1.9c0.8-0.8,3.3-3.1,7.3-3.1
		c6.6,0,9.3,4.9,9.3,10.4v10c0,0.5-0.5,1-1,1h-4.3c-0.6,0-1-0.5-1-1V38.9c0-2.7-1.4-4.4-3.9-4.4c-2.7,0-4.4,1.9-4.9,3.3v11.5
		c0,0.7-0.3,1-1.3,1h-3.9c-0.5,0-1-0.5-1-1V30.4z"/>
	<path fill="#42AA7D" d="M273.9,28.8c2.1,0,3.7,0.6,4.6,0.9v-15c0-0.5,0.5-1,1-1h4.4c0.5,0,1,0.5,1,1v34.5c0,0.5-0.5,1-1,1h-2
		c-0.5,0-0.8-0.4-1-1l-0.5-1.6c0,0-2.4,3.1-6.8,3.1c-5.7,0-10-4.9-10-10.9C263.6,33.7,267.7,28.8,273.9,28.8 M274.4,45.1
		c2.8,0,4-2.1,4.4-3.4v-6c0,0-1.5-1.2-4.1-1.2c-2.9,0-5,2.4-5,5.3C269.7,42.7,271.6,45.1,274.4,45.1"/>
</g>
<g>
	<path fill-rule="evenodd" clip-rule="evenodd" fill="#40A87D" d="M8.8,13C20.4-1.2,45.5-2.4,61.1,7.3c1.3-0.9,2.7-1.8,3.9-2.4
		C66.5,4,68,5,68.1,6.4l0.2,6.7c5.4,5.2,7.8,8.9,15.6,11.3c1.2-1.9,4-0.5,3.6,1.5l-2.8,13.8c-0.1,0.5-0.3,0.9-0.7,1.2
		c-8.4,6.7-13.8,9.4-25.2,11.3l-2.7,9.3l0,0c-0.8,2.8-8.6,2.1-11.2,1.4l0,0c-0.7-0.2-1.2-0.8-1.4-1.5L41.8,53c-5.4,0.7-9,0.2-14-1.6
		l-2,9.8c-0.1,0.7-0.6,1.4-1.4,1.6c-2.6,0.7-10.5,1.4-11.2-1.4c-2.1-9-9.7-26.4-9.7-34.2c0-4.3,1.3-8.4,3.6-11.9
		C1.5,10.2,2,1.5,8.6,1.2c6.4-0.3,6.2,7.4,3.3,6.5c-2.2-0.7,0.5-2.8-2-3.6C5.7,2.6,4.3,8.7,8.8,13L8.8,13z M62.8,23.4
		c5.4,0,5.4,8.3,0,8.3C57.4,31.7,57.4,23.4,62.8,23.4L62.8,23.4z M67.5,17.8c-0.3,1.2-0.9,2.5-2.5,2.1c-2.9-0.7-0.4-3.7-0.6-10.1
		c-5.5,3.6-5.5,7.1-8,5.6C54,14,56.7,11.2,57.9,10c-6.8-3.9-14-5-21.4-5c-14.1,0-29,8.6-29,22.2c0,6.4,7,23.7,9.3,32.1l5.5,0
		c0.7-3.7,1.5-7.3,2.2-11c0.7-3.6,5,0.2,10.5,0.9c5.9,0.8,9.8-2,10.3,1.2l1.8,8.9l5.5,0l4.4-15.5c0.3-1,1.4-1.6,2.4-1.4
		c2.4,0.7,1.1,3.5,0.5,5.5c4.7-0.9,8.1-2,11.2-3.4c3.5-1.6,6.4-3.6,9.8-6.4l2.1-10C75,25.8,72.4,22.7,67.5,17.8L67.5,17.8z
		 M15.6,62.8c-0.3,0.1-0.6,0.1-0.8,0L15.6,62.8L15.6,62.8z"/>
	<path fill-rule="evenodd" clip-rule="evenodd" fill="#40A87D" d="M43.3,13.2c-4.2-1.1-8.8-1-13.1,0.1c-2.5,0.7-3.5-3.1-1-3.8
		c4.9-1.3,10.1-1.3,15-0.1C46.8,10,45.8,13.8,43.3,13.2L43.3,13.2z"/>
</g>
</svg>
