<?xml version="1.0" encoding="utf-8"?>
<!-- Generator: Adobe Illustrator 18.0.0, SVG Export Plug-In . SVG Version: 6.00 Build 0)  -->
<!DOCTYPE svg PUBLIC "-//W3C//DTD SVG 1.1//EN" "http://www.w3.org/Graphics/SVG/1.1/DTD/svg11.dtd">
<svg version="1.1" id="Layer_1" xmlns="http://www.w3.org/2000/svg" xmlns:xlink="http://www.w3.org/1999/xlink" x="0px" y="0px"
	 viewBox="0 0 188.6 37.5" enable-background="new 0 0 188.6 37.5" xml:space="preserve">
<g>
	<path fill="#989898" d="M-878.9,209.9c0-0.6,0.5-1,1-1h1.3c0.6,0,1,0.5,1,1V235c0,0,3.8-3.2,9.8-3.2c9,0,15.5,7.2,15.5,16.6
		c0,9.3-6.4,16.7-14.6,16.7c-6.1,0-10.1-3.6-11-4.7l-0.2,2.9c-0.1,0.7-0.5,1-1.1,1h-0.8c-0.6,0-1-0.5-1-1V209.9z M-865.1,262
		c6.7,0,11.5-6.1,11.5-13.5c0-7.5-5.2-13.2-12.5-13.2c-5.7,0-9.4,3.3-9.4,3.3v17.8C-875.3,256.7-871.9,262-865.1,262"/>
	<path fill="#989898" d="M-829.6,243.9c3.6,0,7.1,1.1,8,1.4c0-7-0.7-10.5-7-10.5c-5.2,0-8.8,1.9-9.5,2.1c-0.6,0.2-1-0.1-1.2-0.6
		l-0.4-1c-0.2-0.7,0.1-1,0.5-1.2c0.2-0.2,4.3-2.4,10.9-2.4c9.7,0,10.1,5.8,10.1,13.9v17.6c0,0.6-0.5,1-1,1h-1c-0.6,0-0.8-0.3-1-0.9
		l-0.3-2.9c-2.1,1.9-5.9,4.5-11,4.5c-5.9,0-10.4-4-10.4-10.5C-843,248.5-838,243.9-829.6,243.9 M-832.2,262.1c4.8,0,9-2.9,10.5-4.9
		v-8.7c-1-0.5-4.2-1.7-8-1.7c-6,0-10.1,3.1-10.1,7.8C-839.7,259.1-836.5,262.1-832.2,262.1"/>
	<path fill="#989898" d="M-806.6,233.7c0-0.6,0.5-1,1.1-1h0.8c0.6,0,0.9,0.3,1,0.8l0.3,3.4c1-1.1,5.4-5,11.7-5
		c8.9,0,12.8,5.6,12.8,14.5v17c0,0.6-0.5,1-1,1h-1.4c-0.6,0-1-0.5-1-1v-17c0-7.3-3.4-11.1-9.4-11.1c-6.5,0-11,5.1-11.3,5.5v22.6
		c0,0.6-0.3,1-1,1h-1.5c-0.6,0-0.9-0.5-0.9-1V233.7z"/>
	<path fill="#989898" d="M-754,231.8c6,0,9.8,3.2,9.8,3.2v-25.1c0-0.6,0.4-1,1-1h1.4c0.5,0,1,0.5,1,1v53.4c0,0.6-0.5,1-1,1h-0.8
		c-0.6,0-1-0.3-1.1-1l-0.2-2.8c-1,1-4.8,4.6-10.9,4.6c-8.2,0-14.7-7.4-14.7-16.6C-769.6,239.1-763,231.8-754,231.8 M-754.7,262
		c6.9,0,10.3-5.3,10.5-5.6v-17.8c0,0-3.6-3.3-9.4-3.3c-7.3,0-12.4,5.7-12.4,13.2C-766.1,255.9-761.4,262-754.7,262"/>
	<path fill="#42AA7D" d="M-728.2,241h-2.7c-0.9,0-1.5-0.7-1.5-1.5v-5.3c0-0.9,0.6-1.5,1.5-1.5h2.7v-8.6c0-10.5,6.4-16,14.8-16
		c4.2,0,7.9,1.8,9.4,3.1c0.5,0.4,0.6,1.3,0.3,1.8l-2.7,5.1c-0.3,0.6-1.2,0.8-1.9,0.4c-1-0.6-2.9-1.6-4.7-1.6c-3.4,0-5.3,2.6-5.3,7.2
		v8.6h7.9c0.9,0,1.5,0.6,1.5,1.5v5.3c0,0.8-0.6,1.5-1.5,1.5h-7.9v21.9c0,0.8-0.7,1.5-1.5,1.5h-6.9c-0.8,0-1.5-0.7-1.5-1.5V241z"/>
	<path fill="#42AA7D" d="M-703.4,234.1c0-0.9,0.7-1.5,1.5-1.5h6.5c0.8,0,1.5,0.6,1.5,1.5v15.6c0,4.2,2.1,6.8,5.8,6.8
		c3.3,0,5.9-3.1,6.3-5.9v-16.5c0-1.2,0.5-1.5,1.7-1.5h6c0.8,0,1.5,0.6,1.5,1.5v28.7c0,0.8-0.7,1.5-1.5,1.5h-2.9
		c-0.8,0-1.3-0.6-1.5-1.2l-1-2.6c-1.4,1.3-4.4,4.6-10.6,4.6c-9.8,0-13.4-7.5-13.4-15.6V234.1z"/>
	<path fill="#42AA7D" d="M-662.9,234.1c0-0.9,0.7-1.5,1.5-1.5h3c0.7,0,1.1,0.4,1.3,1l1.1,2.9c1.2-1.3,5.1-4.7,11.2-4.7
		c10.1,0,14.1,7.5,14.1,15.8v15.2c0,0.8-0.7,1.5-1.5,1.5h-6.5c-0.9,0-1.5-0.7-1.5-1.5v-15.7c0-4.1-2.1-6.7-5.9-6.7
		c-4.1,0-6.7,2.9-7.5,5v17.4c0,1.1-0.5,1.5-2,1.5h-5.9c-0.8,0-1.5-0.7-1.5-1.5V234.1z"/>
	<path fill="#42AA7D" d="M-608.5,231.8c3.2,0,5.6,0.9,7.1,1.4v-22.9c0-0.8,0.7-1.5,1.5-1.5h6.7c0.8,0,1.5,0.7,1.5,1.5v52.5
		c0,0.8-0.7,1.5-1.5,1.5h-3.1c-0.7,0-1.3-0.6-1.5-1.5l-0.8-2.5c0,0-3.7,4.8-10.4,4.8c-8.6,0-15.2-7.5-15.2-16.6
		C-624.2,239.2-617.9,231.8-608.5,231.8 M-607.8,256.6c4.2,0,6.1-3.2,6.7-5.2v-9.2c0,0-2.2-1.8-6.2-1.8c-4.4,0-7.7,3.6-7.7,8.1
		S-612,256.6-607.8,256.6"/>
</g>
<g>
	<path fill-rule="evenodd" clip-rule="evenodd" fill="#40A87D" d="M-1012.2,207.7c17.7-21.7,55.9-23.5,79.6-8.7c2-1.4,4.1-2.7,6-3.7
		c2.2-1.3,4.5,0.2,4.6,2.3l0.2,10.1c8.2,8,11.9,13.6,23.8,17.3c1.9-3,6.1-0.8,5.5,2.2l-4.3,21.1c-0.1,0.7-0.5,1.4-1.1,1.8
		c-12.8,10.3-21.1,14.3-38.4,17.2l-4.1,14.2l0,0c-1.2,4.2-13,3.2-17,2.1l0,0c-1-0.3-1.9-1.2-2.1-2.3l-2.6-12.6
		c-8.2,1.1-13.6,0.3-21.3-2.5l-3,15c-0.2,1.1-1,2.1-2.2,2.4c-4,1.1-16,2.2-17.1-2.2c-3.3-13.7-14.7-40.3-14.7-52.1
		c0-6.6,2-12.7,5.5-18.2c-8.7-7.7-7.9-21,2.1-21.4c9.8-0.5,9.5,11.3,5,10c-3.3-1,0.7-4.3-3-5.5
		C-1017,191.9-1019.2,201.2-1012.2,207.7L-1012.2,207.7z M-930,223.6c8.3,0,8.3,12.6,0,12.6C-938.3,236.1-938.3,223.6-930,223.6
		L-930,223.6z M-922.9,215c-0.4,1.9-1.4,3.8-3.9,3.2c-4.4-1.1-0.6-5.6-0.9-15.3c-8.4,5.5-8.4,10.8-12.1,8.5
		c-3.6-2.2,0.5-6.4,2.3-8.3c-10.3-5.9-21.4-7.6-32.5-7.6c-21.5,0-44.2,13.1-44.2,33.8c0,9.8,10.7,36.1,14.1,48.9l8.3,0
		c1.1-5.6,2.2-11.1,3.4-16.7c1.1-5.4,7.7,0.3,16,1.4c9,1.2,14.9-3,15.7,1.8l2.7,13.5l8.4,0l6.8-23.6c0.5-1.6,2.1-2.5,3.7-2.1
		c3.7,1,1.6,5.3,0.7,8.4c7.1-1.4,12.4-3,17-5.1c5.3-2.4,9.7-5.6,14.9-9.7l3.1-15.3C-911.4,227.2-915.4,222.6-922.9,215L-922.9,215z
		 M-1001.9,283.6c-0.4,0.1-0.9,0.1-1.3,0L-1001.9,283.6L-1001.9,283.6z"/>
	<path fill-rule="evenodd" clip-rule="evenodd" fill="#40A87D" d="M-959.7,208c-6.5-1.6-13.5-1.6-19.9,0.1c-3.8,1-5.3-4.8-1.5-5.8
		c7.5-2,15.4-2,22.8-0.2C-954.5,203.2-955.9,209-959.7,208L-959.7,208z"/>
</g>
<g>
	<path fill="#989898" d="M0,1.2c0-0.4,0.3-0.7,0.7-0.7h0.9c0.4,0,0.7,0.3,0.7,0.7v16.5c0,0,2.5-2.1,6.5-2.1
		c5.9,0,10.2,4.7,10.2,10.9c0,6.1-4.2,11-9.6,11c-4,0-6.6-2.3-7.2-3.1l-0.2,1.9C1.9,36.7,1.6,37,1.2,37H0.7C0.3,37,0,36.6,0,36.3
		V1.2z M9.1,35.4c4.4,0,7.5-4,7.5-8.8c0-4.9-3.4-8.7-8.2-8.7c-3.7,0-6.1,2.2-6.1,2.2v11.7C2.4,31.9,4.6,35.4,9.1,35.4"/>
	<path fill="#989898" d="M32.4,23.5c2.4,0,4.7,0.7,5.3,0.9c0-4.6-0.5-6.9-4.6-6.9c-3.4,0-5.8,1.2-6.2,1.4c-0.4,0.2-0.7-0.1-0.8-0.4
		L25.8,18c-0.2-0.5,0.1-0.7,0.3-0.8c0.2-0.1,2.8-1.6,7.1-1.6c6.3,0,6.6,3.8,6.6,9.1v11.6c0,0.4-0.3,0.7-0.7,0.7h-0.6
		c-0.4,0-0.5-0.2-0.6-0.6l-0.2-1.9c-1.4,1.2-3.9,3-7.2,3c-3.9,0-6.8-2.7-6.8-6.9C23.6,26.5,26.9,23.5,32.4,23.5 M30.7,35.4
		c3.2,0,5.9-1.9,6.9-3.2v-5.7c-0.7-0.3-2.8-1.1-5.3-1.1c-4,0-6.6,2-6.6,5.1C25.8,33.5,27.8,35.4,30.7,35.4"/>
	<path fill="#989898" d="M47.5,16.8c0-0.4,0.3-0.7,0.7-0.7h0.5c0.4,0,0.6,0.2,0.6,0.5l0.2,2.2c0.7-0.7,3.5-3.3,7.7-3.3
		c5.8,0,8.4,3.7,8.4,9.5v11.1c0,0.4-0.3,0.7-0.7,0.7h-0.9c-0.4,0-0.7-0.3-0.7-0.7V25.1c0-4.8-2.2-7.3-6.2-7.3
		c-4.3,0-7.2,3.3-7.4,3.6v14.8c0,0.4-0.2,0.7-0.7,0.7h-1c-0.4,0-0.6-0.3-0.6-0.7V16.8z"/>
	<path fill="#989898" d="M82,15.6c4,0,6.4,2.1,6.4,2.1V1.2c0-0.4,0.3-0.7,0.7-0.7H90c0.3,0,0.6,0.3,0.6,0.7v35.1
		c0,0.4-0.3,0.7-0.7,0.7h-0.5c-0.4,0-0.7-0.2-0.7-0.7l-0.2-1.8c-0.6,0.7-3.2,3-7.2,3c-5.4,0-9.6-4.8-9.6-10.9
		C71.8,20.4,76.1,15.6,82,15.6 M81.6,35.4c4.5,0,6.8-3.5,6.9-3.7V20c0,0-2.4-2.2-6.2-2.2c-4.8,0-8.2,3.7-8.2,8.7
		C74.1,31.4,77.2,35.4,81.6,35.4"/>
	<path fill="#42AA7D" d="M99,21.6h-1.8c-0.6,0-1-0.5-1-1v-3.5c0-0.6,0.4-1,1-1H99v-5.6C99,3.6,103.2,0,108.7,0c2.8,0,5.2,1.2,6.1,2
		c0.3,0.3,0.4,0.8,0.2,1.2l-1.8,3.3c-0.2,0.4-0.8,0.5-1.2,0.3c-0.7-0.4-1.9-1-3.1-1c-2.2,0-3.5,1.7-3.5,4.7v5.6h5.2c0.6,0,1,0.4,1,1
		v3.5c0,0.5-0.4,1-1,1h-5.2V36c0,0.5-0.5,1-1,1H100c-0.5,0-1-0.5-1-1V21.6z"/>
	<path fill="#42AA7D" d="M115.3,17.1c0-0.6,0.5-1,1-1h4.3c0.5,0,1,0.4,1,1v10.3c0,2.8,1.4,4.5,3.8,4.5c2.2,0,3.9-2,4.2-3.9V17.1
		c0-0.8,0.3-1,1.1-1h4c0.5,0,1,0.4,1,1V36c0,0.5-0.5,1-1,1h-1.9c-0.5,0-0.8-0.4-1-0.8l-0.6-1.7c-0.9,0.8-2.9,3-7,3
		c-6.5,0-8.8-4.9-8.8-10.3V17.1z"/>
	<path fill="#42AA7D" d="M141.8,17.1c0-0.6,0.5-1,1-1h2c0.5,0,0.7,0.3,0.9,0.6l0.7,1.9c0.8-0.8,3.3-3.1,7.3-3.1
		c6.6,0,9.3,4.9,9.3,10.4v10c0,0.5-0.5,1-1,1h-4.3c-0.6,0-1-0.5-1-1V25.7c0-2.7-1.4-4.4-3.9-4.4c-2.7,0-4.4,1.9-4.9,3.3V36
		c0,0.7-0.3,1-1.3,1h-3.9c-0.5,0-1-0.5-1-1V17.1z"/>
	<path fill="#42AA7D" d="M177.6,15.6c2.1,0,3.7,0.6,4.6,0.9v-15c0-0.5,0.5-1,1-1h4.4c0.5,0,1,0.5,1,1V36c0,0.5-0.5,1-1,1h-2
		c-0.5,0-0.8-0.4-1-1l-0.5-1.6c0,0-2.4,3.1-6.8,3.1c-5.7,0-10-4.9-10-10.9C167.3,20.5,171.4,15.6,177.6,15.6 M178.1,31.9
		c2.8,0,4-2.1,4.4-3.4v-6c0,0-1.5-1.2-4.1-1.2c-2.9,0-5,2.4-5,5.3S175.3,31.9,178.1,31.9"/>
</g>
</svg>
