<?xml version="1.0" encoding="utf-8"?>
<!-- Generator: Adobe Illustrator 18.1.1, SVG Export Plug-In . SVG Version: 6.00 Build 0)  -->
<svg version="1.1" id="Layer_1" xmlns="http://www.w3.org/2000/svg" xmlns:xlink="http://www.w3.org/1999/xlink" x="0px" y="0px"
	 viewBox="0 0 318.7 236.9" enable-background="new 0 0 318.7 236.9" xml:space="preserve">
<g>
	<path fill-rule="evenodd" clip-rule="evenodd" fill="#FFFFFF" d="M24.3,47.5C67.1-5.2,159.8-9.4,217.4,26.4c4.9-3.5,10-6.5,14.5-9
		c5.2-3.2,10.8,0.4,11.2,5.5l0.6,24.6c19.9,19.3,28.7,33,57.8,41.9c4.6-7.2,14.8-2,13.3,5.4l-10.4,51.1c-0.3,1.7-1.2,3.3-2.6,4.4
		c-31,24.9-51.1,34.6-93.1,41.8l-9.8,34.4l0,0c-2.9,10.2-31.6,7.7-41.3,5l0,0c-2.5-0.7-4.6-2.8-5.1-5.5l-6.2-30.6
		c-19.8,2.7-33.1,0.8-51.6-6l-7.3,36.3c-0.4,2.7-2.4,5.1-5.2,5.9c-9.6,2.7-38.9,5.3-41.4-5.3C32.8,192.8,4.9,128.4,4.9,99.8
		c0-15.9,4.8-30.9,13.4-44.1c-21-18.6-19.2-50.8,5.1-52c23.7-1.1,23,27.5,12.2,24.1c-8-2.5,1.8-10.4-7.3-13.4
		C12.6,9.2,7.4,31.7,24.3,47.5L24.3,47.5z M223.7,85.9c20.1,0,20.1,30.5,0,30.5C203.7,116.4,203.7,85.9,223.7,85.9L223.7,85.9z
		 M241,65.1c-1,4.5-3.3,9.3-9.4,7.8c-10.7-2.6-1.5-13.5-2.2-37.2C208.9,49.1,209,61.9,200,56.4c-8.8-5.3,1.1-15.6,5.7-20.2
		c-25-14.3-51.9-18.5-78.9-18.5c-52.1,0-107.3,31.7-107.3,82.1c0,23.8,26,87.5,34.3,118.6l20.2,0c2.7-13.5,5.4-27,8.1-40.5
		c2.6-13.2,18.6,0.7,38.9,3.3c21.9,2.9,36.3-7.3,38.1,4.4l6.6,32.7l20.4-0.1l16.4-57.3c1.1-3.9,5.1-6.1,9-5
		c8.9,2.5,3.9,12.8,1.7,20.5c17.2-3.3,30.1-7.3,41.3-12.4c12.8-5.9,23.6-13.5,36.2-23.5l7.6-37.1C268.8,94.7,259.1,83.4,241,65.1
		L241,65.1z M49.4,231.5c-1,0.2-2.1,0.3-3.1,0.1L49.4,231.5L49.4,231.5z"/>
	<path fill-rule="evenodd" clip-rule="evenodd" fill="#FFFFFF" d="M151.6,48.1c-15.7-3.9-32.7-3.8-48.3,0.3
		c-9.2,2.4-12.9-11.6-3.7-14c18.1-4.8,37.3-4.9,55.4-0.4C164.4,36.3,160.9,50.4,151.6,48.1L151.6,48.1z"/>
</g>
</svg>
